<?xml version="1.0" encoding="iso-8859-1"?>
<!-- Generator: Adobe Illustrator 19.0.0, SVG Export Plug-In . SVG Version: 6.00 Build 0)  -->
<svg version="1.1" id="Capa_1" xmlns="http://www.w3.org/2000/svg" xmlns:xlink="http://www.w3.org/1999/xlink" x="0px" y="0px"
	 viewBox="0 0 171.722 171.722" style="enable-background:new 0 0 171.722 171.722;" xml:space="preserve">
<g>
	<g>
		<path style="fill:#594236;" d="M53.714,51.002l-42.06,39.84c0,0-0.77-3.17-1.91-8.34c-4.97-22.53-17.04-82.91-3.42-82.5
			c13.32,0.399,35.44,32.439,43.92,45.52C52.434,48.892,53.714,51.002,53.714,51.002z"/>
		<path style="fill:#FFB3B3;" d="M47.32,51.394c0,0-21.799-35.927-33.708-36.282c-11.909-0.355,3.79,64.626,3.79,64.626
			L47.32,51.394z"/>
		<path style="fill:#594236;" d="M118.015,51.004c0,0,30.643-50.5,47.383-51c16.74-0.5-5.327,90.842-5.327,90.842L118.015,51.004z"
			/>
		<path style="fill:#FFB3B3;" d="M124.405,51.394c0,0,21.799-35.927,33.709-36.282c11.908-0.355-3.791,64.626-3.791,64.626
			L124.405,51.394z"/>
		<path style="fill:#594236;" d="M163.004,100.392c0,3.57-0.391,7.18-1.15,10.78c-6.359,30.479-38.5,60.55-77.189,60.55
			c-40.16,0-73.271-32.4-77.811-64.03c-0.35-2.439-0.53-4.88-0.53-7.3c0-6.22,1.2-12.23,3.42-17.89c1.44-3.671,3.31-7.2,5.57-10.54
			c0.08-0.12,0.16-0.24,0.25-0.36c1.03-1.51,2.14-2.97,3.32-4.39c6.33-7.61,14.78-14.061,24.69-18.82
			c0.48-0.231,0.96-0.46,1.44-0.67c1.07-0.5,2.15-0.97,3.24-1.42h0.01c0.66-0.271,1.31-0.53,1.98-0.78
			c0.13-0.06,0.27-0.11,0.41-0.16c2.03-0.77,4.11-1.479,6.25-2.1c8.63-2.55,17.98-3.95,27.76-3.95c9.779,0,19.14,1.4,27.769,3.95
			c2.101,0.62,4.17,1.31,6.18,2.08c0.811,0.3,1.601,0.609,2.391,0.93c0.09,0.04,0.18,0.07,0.27,0.11c1.59,0.649,3.15,1.35,4.67,2.1
			c0.07,0.04,0.15,0.07,0.221,0.11c9.659,4.699,17.909,11,24.13,18.43c0,0,0,0.01,0.01,0.01c1.39,1.681,2.69,3.4,3.88,5.181v0.01
			c0.48,0.71,0.94,1.43,1.37,2.16c2.37,3.909,4.22,8.05,5.48,12.359C162.323,91.132,163.004,95.701,163.004,100.392z"/>
		<path style="fill:#735546;" d="M161.854,111.172c-6.359,30.479-38.5,60.55-77.189,60.55c-40.16,0-73.271-32.4-77.811-64.03
			c13.25-24.79,42.58-42.02,76.641-42.02c0.39,0,0.779,0,1.17,0.01C119.784,66.081,149.724,84.821,161.854,111.172z"/>
		<g>
			<path style="fill:#BDBDBD;" d="M114.994,118.847c-16.6-3.821-16.94,8.28-18.802,4.319c-1.222-2.601,6.994-17.807,7.572-20.84
				c1.459-7.649,8.871-12.688,16.521-11.229c4.26,0.813,9.332,1.947,11.301,5.464c1.567,2.8,0.574,7.667-0.072,11.058
				C130.057,115.269,122.645,120.306,114.994,118.847z"/>
			<circle style="fill:#D1F2FF;" cx="117.64" cy="104.972" r="12.125"/>
			<path style="fill:#BDBDBD;" d="M97.382,123.124c0,0-3.427,0.619-2.502-2.895c0.924-3.515,3.037-20.6,17.358-28.304l-0.174,0.912
				C112.065,92.838,101.673,98.619,97.382,123.124z"/>
			<path style="fill:#050403;" d="M124.476,106.275c-1.254,6.578-8.739,10.673-9.106,10.607c-0.351-0.062-5.818-6.636-4.564-13.214
				c1.255-6.578,9.106-10.608,9.106-10.608C120.215,93.714,125.731,99.698,124.476,106.275z"/>
			<circle style="fill:#FFFFFF;" cx="121.912" cy="102.627" r="2.521"/>
			<circle style="fill:#FFFFFF;" cx="112.799" cy="106.043" r="1.958"/>
		</g>
		<g>
			<path style="fill:#BDBDBD;" d="M55.011,118.847c16.6-3.821,16.94,8.28,18.802,4.319c1.222-2.601-6.994-17.807-7.572-20.84
				c-1.459-7.649-8.871-12.688-16.521-11.229c-4.26,0.813-9.332,1.947-11.301,5.464c-1.567,2.8-0.574,7.667,0.072,11.058
				C39.948,115.269,47.361,120.306,55.011,118.847z"/>
			<circle style="fill:#D1F2FF;" cx="52.365" cy="104.972" r="12.125"/>
			<path style="fill:#BDBDBD;" d="M72.623,123.124c0,0,3.427,0.619,2.502-2.895c-0.924-3.515-3.037-20.6-17.358-28.304l0.174,0.912
				C57.941,92.838,68.332,98.619,72.623,123.124z"/>
			<path style="fill:#050403;" d="M45.53,106.275c1.254,6.578,8.739,10.673,9.106,10.607c0.351-0.062,5.818-6.636,4.564-13.214
				c-1.255-6.578-9.106-10.608-9.106-10.608C49.79,93.714,44.275,99.698,45.53,106.275z"/>
			<circle style="fill:#FFFFFF;" cx="48.093" cy="102.627" r="2.521"/>
			<circle style="fill:#FFFFFF;" cx="57.207" cy="106.043" r="1.958"/>
		</g>
		<g>
			<path style="fill:#735546;" d="M115.625,139.067c0,8.873-5.97,14.605-14.842,14.605s-17.286-11.181-17.286-20.052
				c0-8.872,7.191-10.616,16.064-10.616C108.434,123.004,115.625,130.196,115.625,139.067z"/>
			<path style="fill:#735546;" d="M53.709,139.067c0,8.873,5.969,14.605,14.842,14.605c8.872,0,17.285-11.181,17.285-20.052
				c0-8.872-7.19-10.616-16.063-10.616C60.901,123.004,53.709,130.196,53.709,139.067z"/>
		</g>
		<path style="fill:#FFB3B3;" d="M93.123,117.1H76.139c-4.586,0-8.397,5.022-4.456,7.072c2.262,1.177,6.956,0.913,7.713,4.099
			c1.43,6.003,4.07,7.279,5.196,7.332v0.005c0.012,0,0.076-0.005,0.076-0.005c1.126-0.053,3.766-1.329,5.196-7.332
			c0.759-3.186,5.451-2.922,7.713-4.099C101.519,122.122,97.709,117.1,93.123,117.1z"/>
	</g>
	<path style="opacity:0.6;fill:#FFFFFF;" d="M84.664,39.312v132.41c-40.16,0-73.271-32.4-77.811-64.03
		c-0.35-2.439-0.53-4.88-0.53-7.3c0-6.22,1.2-12.23,3.42-17.89c-4.97-22.53-17.04-82.91-3.42-82.5
		c13.32,0.399,35.44,32.439,43.92,45.52c0.13-0.06,0.27-0.11,0.41-0.16c2.03-0.77,4.11-1.479,6.25-2.1
		C65.534,40.712,74.884,39.312,84.664,39.312z"/>
</g>
<g>
</g>
<g>
</g>
<g>
</g>
<g>
</g>
<g>
</g>
<g>
</g>
<g>
</g>
<g>
</g>
<g>
</g>
<g>
</g>
<g>
</g>
<g>
</g>
<g>
</g>
<g>
</g>
<g>
</g>
</svg>
